<svg xmlns="http://www.w3.org/2000/svg" viewBox="0 0 200 220" aria-hidden="true">
  <path d="M100 8 C 70 24, 44 52, 32 88 C 22 118, 26 150, 44 174 C 60 196, 90 208, 122 204 C 152 200, 176 184, 184 158 C 190 138, 184 116, 168 100 C 152 84, 130 78, 112 86 C 96 94, 88 110, 92 126 C 96 140, 110 148, 124 144 C 134 142, 140 134, 138 124 C 136 116, 128 112, 122 116 L 120 118 C 130 100, 144 86, 160 78 C 174 70, 188 68, 196 72 C 188 56, 168 38, 144 24 C 128 14, 112 8, 100 8 Z" fill="#FAFAF7"/>
  <path d="M100 14 C 96 60, 96 110, 104 168" stroke="#1A1815" stroke-width="2" stroke-linecap="round" fill="none"/>
  <path d="M102 30 C 86 44, 70 60, 56 84" stroke="#1A1815" stroke-width="2" stroke-linecap="round" fill="none"/>
  <path d="M104 48 C 86 64, 68 84, 54 110" stroke="#1A1815" stroke-width="2" stroke-linecap="round" fill="none"/>
  <path d="M104 72 C 86 90, 70 112, 60 138" stroke="#1A1815" stroke-width="2" stroke-linecap="round" fill="none"/>
  <path d="M105 100 C 90 118, 78 140, 74 162" stroke="#1A1815" stroke-width="2" stroke-linecap="round" fill="none"/>
  <path d="M101 38 C 116 50, 130 64, 142 80" stroke="#1A1815" stroke-width="2" stroke-linecap="round" fill="none"/>
  <path d="M102 64 C 120 76, 138 90, 152 108" stroke="#1A1815" stroke-width="2" stroke-linecap="round" fill="none"/>
  <path d="M104 96 C 122 108, 138 124, 148 142" stroke="#1A1815" stroke-width="2" stroke-linecap="round" fill="none"/>
  <circle cx="108" cy="148" r="6" fill="#FAFAF7" stroke="#1A1815" stroke-width="2"/>
  <rect x="104" y="156" width="8" height="28" rx="2" fill="#FAFAF7" stroke="#1A1815" stroke-width="2"/>
</svg>
